<svg  viewBox="0 0 722 458" fill="none" xmlns="http://www.w3.org/2000/svg">
<g filter="url(#filter0_i)">
<rect width="722" height="458" rx="25" fill="url(#paint0_linear)"/>
</g>
<path d="M223.16 363V345.48H228.752L236.12 360.168H236.432V345.48H239.648V363H234.032L226.664 348.312H226.328V363H223.16ZM244.644 363L250.621 345.48H256.188L262.333 363H258.829L257.221 358.344H249.588L248.052 363H244.644ZM250.548 355.464H256.237L253.812 348.336H252.924L250.548 355.464ZM273.194 363.456C271.642 363.456 270.33 363.208 269.258 362.712C268.186 362.216 267.37 361.536 266.81 360.672C266.266 359.808 265.994 358.816 265.994 357.696H269.33C269.33 358.176 269.458 358.632 269.714 359.064C269.97 359.496 270.378 359.848 270.938 360.12C271.514 360.392 272.266 360.528 273.194 360.528C274.442 360.528 275.378 360.272 276.002 359.76C276.626 359.248 276.938 358.624 276.938 357.888C276.938 357.28 276.674 356.784 276.146 356.4C275.618 356.016 274.802 355.776 273.698 355.68L272.162 355.56C270.482 355.416 269.138 354.896 268.13 354C267.138 353.088 266.642 351.888 266.642 350.4C266.642 349.296 266.898 348.336 267.41 347.52C267.938 346.704 268.682 346.08 269.642 345.648C270.602 345.2 271.722 344.976 273.002 344.976C274.314 344.976 275.45 345.208 276.41 345.672C277.386 346.136 278.138 346.792 278.666 347.64C279.194 348.472 279.458 349.456 279.458 350.592H276.122C276.122 349.888 275.858 349.264 275.33 348.72C274.818 348.176 274.042 347.904 273.002 347.904C271.978 347.904 271.218 348.152 270.722 348.648C270.226 349.144 269.978 349.728 269.978 350.4C269.978 350.944 270.17 351.424 270.554 351.84C270.954 352.24 271.594 352.472 272.474 352.536L274.01 352.68C275.258 352.792 276.346 353.064 277.274 353.496C278.218 353.912 278.954 354.488 279.482 355.224C280.01 355.96 280.274 356.848 280.274 357.888C280.274 358.992 279.978 359.968 279.386 360.816C278.81 361.648 277.994 362.296 276.938 362.76C275.882 363.224 274.634 363.456 273.194 363.456ZM291.766 363.456C290.214 363.456 288.902 363.208 287.83 362.712C286.758 362.216 285.942 361.536 285.382 360.672C284.838 359.808 284.566 358.816 284.566 357.696H287.902C287.902 358.176 288.03 358.632 288.286 359.064C288.542 359.496 288.95 359.848 289.51 360.12C290.086 360.392 290.838 360.528 291.766 360.528C293.014 360.528 293.95 360.272 294.574 359.76C295.198 359.248 295.51 358.624 295.51 357.888C295.51 357.28 295.246 356.784 294.718 356.4C294.19 356.016 293.374 355.776 292.27 355.68L290.734 355.56C289.054 355.416 287.71 354.896 286.702 354C285.71 353.088 285.214 351.888 285.214 350.4C285.214 349.296 285.47 348.336 285.982 347.52C286.51 346.704 287.254 346.08 288.214 345.648C289.174 345.2 290.294 344.976 291.574 344.976C292.886 344.976 294.022 345.208 294.982 345.672C295.958 346.136 296.71 346.792 297.238 347.64C297.766 348.472 298.03 349.456 298.03 350.592H294.694C294.694 349.888 294.43 349.264 293.902 348.72C293.39 348.176 292.614 347.904 291.574 347.904C290.55 347.904 289.79 348.152 289.294 348.648C288.798 349.144 288.55 349.728 288.55 350.4C288.55 350.944 288.742 351.424 289.126 351.84C289.526 352.24 290.166 352.472 291.046 352.536L292.582 352.68C293.83 352.792 294.918 353.064 295.846 353.496C296.79 353.912 297.526 354.488 298.054 355.224C298.582 355.96 298.846 356.848 298.846 357.888C298.846 358.992 298.55 359.968 297.958 360.816C297.382 361.648 296.566 362.296 295.51 362.76C294.454 363.224 293.206 363.456 291.766 363.456ZM304.362 363V345.48H314.97V348.36H307.698V352.656H314.538V355.536H307.698V360.12H315.162V363H304.362ZM321.058 363V345.36H327.562C329.658 345.36 331.33 345.832 332.578 346.776C333.826 347.72 334.45 349.152 334.45 351.072V351.48C334.45 352.792 334.146 353.872 333.538 354.72C332.946 355.568 332.122 356.192 331.066 356.592L335.746 363H331.762L327.634 357.144H327.562H324.466V363H321.058ZM327.922 348.264H324.466V354.384H327.922C328.85 354.384 329.594 354.104 330.154 353.544C330.714 352.984 330.994 352.248 330.994 351.336C330.994 350.424 330.714 349.688 330.154 349.128C329.594 348.552 328.85 348.264 327.922 348.264ZM352.536 363V356.304H351.672L346.392 345.48H349.896L353.808 353.712H354.72L358.296 345.48H361.608L356.736 356.304H355.872V363H352.536ZM379.994 363.456C378.442 363.456 377.13 363.208 376.058 362.712C374.986 362.216 374.17 361.536 373.61 360.672C373.066 359.808 372.794 358.816 372.794 357.696H376.13C376.13 358.176 376.258 358.632 376.514 359.064C376.77 359.496 377.178 359.848 377.738 360.12C378.314 360.392 379.066 360.528 379.994 360.528C381.242 360.528 382.178 360.272 382.802 359.76C383.426 359.248 383.738 358.624 383.738 357.888C383.738 357.28 383.474 356.784 382.946 356.4C382.418 356.016 381.602 355.776 380.498 355.68L378.962 355.56C377.282 355.416 375.938 354.896 374.93 354C373.938 353.088 373.442 351.888 373.442 350.4C373.442 349.296 373.698 348.336 374.21 347.52C374.738 346.704 375.482 346.08 376.442 345.648C377.402 345.2 378.522 344.976 379.802 344.976C381.114 344.976 382.25 345.208 383.21 345.672C384.186 346.136 384.938 346.792 385.466 347.64C385.994 348.472 386.258 349.456 386.258 350.592H382.922C382.922 349.888 382.658 349.264 382.13 348.72C381.618 348.176 380.842 347.904 379.802 347.904C378.778 347.904 378.018 348.152 377.522 348.648C377.026 349.144 376.778 349.728 376.778 350.4C376.778 350.944 376.97 351.424 377.354 351.84C377.754 352.24 378.394 352.472 379.274 352.536L380.81 352.68C382.058 352.792 383.146 353.064 384.074 353.496C385.018 353.912 385.754 354.488 386.282 355.224C386.81 355.96 387.074 356.848 387.074 357.888C387.074 358.992 386.778 359.968 386.186 360.816C385.61 361.648 384.794 362.296 383.738 362.76C382.682 363.224 381.434 363.456 379.994 363.456ZM398.441 363L404.417 345.48H409.985L416.129 363H412.625L411.017 358.344H403.385L401.849 363H398.441ZM404.345 355.464H410.033L407.609 348.336H406.721L404.345 355.464ZM421.132 363V345.48H424.54V360H431.62V363H421.132ZM436.845 363V345.48H440.253V363H436.845Z" fill="#FBF8FC"/>
<path fill-rule="evenodd" clip-rule="evenodd" d="M95.3452 319.859C95.3452 319.872 95.3453 319.878 95.3463 319.879C95.3474 319.879 95.3496 319.871 95.354 319.856C95.3731 319.79 95.4331 319.584 95.6221 319.257C95.8687 318.83 96.2717 318.313 96.8653 317.826C98.0224 316.877 99.9786 315.982 103.09 316.211C115.793 317.143 122.736 325.857 122.736 332.161V372.168C122.736 372.581 122.663 372.734 122.642 372.769C122.6 372.794 122.441 372.866 122.028 372.866H114.306C113.893 372.866 113.734 372.794 113.692 372.769C113.671 372.734 113.599 372.581 113.599 372.168V335.238C113.599 332.612 112.315 330.043 110.474 328.159C108.627 326.268 106.04 324.886 103.213 324.886H95.3452V319.859ZM122.647 372.766C122.651 372.762 122.653 372.76 122.654 372.76C122.654 372.76 122.652 372.762 122.647 372.766ZM113.681 372.76C113.681 372.76 113.683 372.762 113.688 372.766C113.683 372.762 113.68 372.76 113.681 372.76ZM103.213 328.245H95.3452V372.168C95.3451 373.221 95.156 374.405 94.2613 375.256C93.3862 376.088 92.2223 376.225 91.2784 376.225H83.4154C82.537 376.225 81.456 376.058 80.5915 375.305C79.6809 374.511 79.3486 373.37 79.3486 372.168V334.819C79.3486 332.736 80.5152 330.295 82.1528 328.43C83.8125 326.54 86.2707 324.886 89.1714 324.886H91.9856V319.851C91.9856 319.113 92.3018 318.288 92.713 317.577C93.1569 316.808 93.8212 315.978 94.7349 315.229C96.5921 313.705 99.4099 312.572 103.336 312.86C117.312 313.886 126.095 323.651 126.095 332.161V372.168C126.095 373.159 125.872 374.257 125.065 375.097C124.246 375.95 123.128 376.225 122.028 376.225H114.306C113.207 376.225 112.088 375.95 111.269 375.097C110.462 374.257 110.239 373.159 110.239 372.168V335.238C110.239 333.679 109.445 331.913 108.071 330.506C106.704 329.107 104.938 328.245 103.213 328.245ZM89.1714 328.245H91.9856V372.168C91.9856 372.506 91.9534 372.704 91.9249 372.808C91.8146 372.837 91.615 372.866 91.2784 372.866H83.4154C82.9884 372.866 82.834 372.791 82.8028 372.774C82.774 372.725 82.7082 372.563 82.7082 372.168V334.819C82.7082 333.824 83.3665 332.139 84.6771 330.647C85.9656 329.179 87.5788 328.245 89.1714 328.245ZM82.8161 372.791C82.8156 372.792 82.8116 372.788 82.8054 372.778C82.8134 372.786 82.8165 372.791 82.8161 372.791ZM163.431 381.121C163.431 381.108 163.431 381.101 163.43 381.101C163.429 381.101 163.427 381.108 163.422 381.124C163.403 381.189 163.343 381.395 163.154 381.723C162.908 382.149 162.505 382.666 161.911 383.153C160.754 384.102 158.798 384.997 155.686 384.769C142.984 383.836 136.041 375.123 136.041 368.819V328.812C136.041 328.399 136.114 328.246 136.135 328.211C136.176 328.186 136.335 328.114 136.748 328.114H144.471C144.884 328.114 145.043 328.186 145.084 328.211C145.105 328.246 145.178 328.399 145.178 328.812V365.741C145.178 368.367 146.461 370.937 148.302 372.821C150.15 374.712 152.737 376.094 155.563 376.094H163.431V381.121ZM136.125 328.218C136.126 328.217 136.128 328.216 136.13 328.214C136.125 328.217 136.123 328.219 136.123 328.219C136.123 328.22 136.124 328.219 136.125 328.218ZM145.096 328.219C145.096 328.22 145.093 328.218 145.089 328.214C145.094 328.217 145.096 328.219 145.096 328.219ZM155.563 372.734H163.431V328.812C163.431 327.759 163.621 326.575 164.515 325.724C165.39 324.892 166.554 324.754 167.498 324.754H175.361C176.239 324.754 177.321 324.921 178.185 325.675C179.096 326.469 179.428 327.609 179.428 328.812V366.161C179.428 368.243 178.261 370.685 176.624 372.55C174.964 374.44 172.506 376.094 169.605 376.094H166.791V381.128C166.791 381.867 166.475 382.691 166.064 383.403C165.62 384.172 164.955 385.002 164.042 385.751C162.184 387.274 159.367 388.408 155.44 388.119C141.464 387.093 132.681 377.328 132.681 368.819V328.812C132.681 327.821 132.904 326.723 133.711 325.883C134.53 325.029 135.649 324.754 136.748 324.754H144.471C145.57 324.754 146.689 325.029 147.508 325.883C148.314 326.723 148.537 327.821 148.537 328.812V365.741C148.537 367.3 149.331 369.067 150.705 370.473C152.073 371.873 153.838 372.734 155.563 372.734ZM169.605 372.734H166.791V328.812C166.791 328.473 166.823 328.276 166.852 328.172C166.962 328.143 167.161 328.114 167.498 328.114H175.361C175.788 328.114 175.943 328.188 175.974 328.206C176.003 328.255 176.068 328.416 176.068 328.812V366.161C176.068 367.156 175.41 368.84 174.099 370.333C172.811 371.8 171.198 372.734 169.605 372.734ZM175.963 328.19C175.961 328.189 175.961 328.188 175.96 328.188C175.96 328.189 175.963 328.194 175.971 328.202C175.967 328.196 175.965 328.192 175.963 328.19Z" fill="#FBF8FC"/>
<circle cx="581.889" cy="86.4971" r="45.7505" fill="#E71924"/>
<circle cx="637.647" cy="86.4971" r="45.7505" fill="#F99F19"/>
<path fill-rule="evenodd" clip-rule="evenodd" d="M609.768 122.595C620.636 114.23 627.64 101.092 627.64 86.3172C627.64 71.5427 620.636 58.404 609.768 50.0396C598.9 58.404 591.897 71.5427 591.897 86.3172C591.897 101.092 598.9 114.23 609.768 122.595Z" fill="#F26520"/>
<rect x="80.4209" y="156.195" width="97.9347" height="69.3406" rx="6.07624" fill="url(#paint1_linear)" stroke="#211F21" stroke-width="2.14455"/>
<path d="M80.7783 178.713H110.087" stroke="#211F21" stroke-width="2" stroke-linecap="round"/>
<path d="M80.7783 200.873H109.445" stroke="#211F21" stroke-width="2" stroke-linecap="round"/>
<path d="M149.404 200.873H177.998" stroke="#211F21" stroke-width="2" stroke-linecap="round"/>
<path d="M148.975 179.428H177.998" stroke="#211F21" stroke-width="2" stroke-linecap="round"/>
<circle cx="129.388" cy="166.561" r="2.14455" fill="#211F21"/>
<path d="M231.053 205.824C236.325 192.59 236.926 185.119 231.053 171.645C230.43 170.215 231.053 169.024 231.768 168.786C232.483 168.547 233.589 168.786 234.27 170.215C241.188 184.73 240.767 192.87 234.627 207.387C233.912 208.817 232.575 208.998 231.768 208.46C230.824 207.831 230.608 206.941 231.053 205.824Z" fill="#FBF8FC"/>
<path d="M223.547 172.717C222.832 173.075 222.375 174.43 223.19 175.934C227.999 185.94 227.801 191.662 223.19 202.026C222.686 203.071 222.998 204.226 223.905 204.528C224.977 204.886 225.913 204.125 226.406 203.098C231.701 192.084 231.84 185.756 226.406 174.147C225.905 173.075 224.619 172.181 223.547 172.717Z" fill="#FBF8FC"/>
<path d="M216.399 177.364C215.326 177.721 215.136 178.908 215.684 180.223C218.53 187.063 218.979 190.898 215.684 197.737C215.041 198.929 214.83 200.193 216.041 200.596C217.252 201 218.126 200.363 218.543 199.524C222.766 191.149 221.82 186.454 218.543 178.079C218.263 177.364 217.471 177.006 216.399 177.364Z" fill="#FBF8FC"/>
<path d="M208.893 180.223C207.82 180.938 207.668 182.022 208.535 183.797C210.344 187.564 210.303 189.68 208.535 193.448C207.713 195.11 207.463 197.022 208.893 197.38C210.322 197.737 210.957 197.229 211.752 195.235C213.578 189.987 213.756 187.02 211.752 181.653C211.291 180.261 210.322 179.508 208.893 180.223Z" fill="#FBF8FC"/>
<path d="M145.115 170.849C142.372 161.508 137.251 156.91 129.03 156.91C119.023 156.91 116.194 164.53 110.087 178.355C113.998 187.507 114.039 192.437 110.087 200.873C116.494 219.254 121.24 224.915 129.388 224.821C140.111 224.821 143.163 215.733 149.046 200.873C145.952 192.497 145.622 187.875 148.5 179.5" stroke="#211F21" stroke-width="2" stroke-linecap="round"/>
<defs>
<filter id="filter0_i" x="0" y="0" width="725" height="461" filterUnits="userSpaceOnUse" color-interpolation-filters="sRGB">
<feFlood flood-opacity="0" result="BackgroundImageFix"/>
<feBlend mode="normal" in="SourceGraphic" in2="BackgroundImageFix" result="shape"/>
<feColorMatrix in="SourceAlpha" type="matrix" values="0 0 0 0 0 0 0 0 0 0 0 0 0 0 0 0 0 0 127 0" result="hardAlpha"/>
<feOffset dx="3" dy="3"/>
<feGaussianBlur stdDeviation="3"/>
<feComposite in2="hardAlpha" operator="arithmetic" k2="-1" k3="1"/>
<feColorMatrix type="matrix" values="0 0 0 0 1 0 0 0 0 1 0 0 0 0 1 0 0 0 0.25 0"/>
<feBlend mode="normal" in2="shape" result="effect1_innerShadow"/>
</filter>
<linearGradient id="paint0_linear" x1="610.09" y1="61.83" x2="354.096" y2="526.995" gradientUnits="userSpaceOnUse">
<stop stop-color="#A950C4"/>
<stop offset="1" stop-color="#82269E"/>
</linearGradient>
<linearGradient id="paint1_linear" x1="171" y1="165" x2="87" y2="221" gradientUnits="userSpaceOnUse">
<stop stop-color="#F4F4F4"/>
<stop offset="1" stop-color="#D6D6D6"/>
</linearGradient>
</defs>
</svg>
